<svg width="19" height="26" viewBox="0 0 19 26" fill="none" xmlns="http://www.w3.org/2000/svg">
<path d="M16.72 11.375C17.0367 11.375 17.3335 11.4385 17.6106 11.5654C17.8877 11.6924 18.1292 11.8659 18.335 12.0859C18.5408 12.306 18.7031 12.5641 18.8219 12.8604C18.9406 13.1566 19 13.474 19 13.8125V18.6875C19 19.6947 18.8219 20.6426 18.4656 21.5312C18.1094 22.4199 17.6185 23.1943 16.9931 23.8545C16.3677 24.5146 15.6433 25.0352 14.82 25.416C13.9967 25.7969 13.11 25.9915 12.16 26C11.02 26 9.95917 25.7673 8.9775 25.3018C7.99583 24.8363 7.10125 24.1761 6.29375 23.3213L0.68875 17.3291C0.467083 17.0921 0.296875 16.8171 0.178125 16.5039C0.059375 16.1908 0 15.8691 0 15.5391C0 15.1836 0.0633333 14.8535 0.19 14.5488C0.316667 14.2441 0.486875 13.9733 0.700625 13.7363C0.914375 13.4993 1.16375 13.3216 1.44875 13.2031C1.73375 13.0846 2.0425 13.0169 2.375 13C3.02417 13 3.58229 13.2497 4.04938 13.749L5.32 15.0947V10.8291C4.85292 10.5921 4.43333 10.2959 4.06125 9.94043C3.68917 9.58496 3.3725 9.18294 3.11125 8.73438C2.85 8.28581 2.64417 7.80339 2.49375 7.28711C2.34333 6.77083 2.27208 6.23763 2.28 5.6875C2.28 4.90039 2.41854 4.16406 2.69563 3.47852C2.97271 2.79297 3.35271 2.18783 3.83562 1.66309C4.31854 1.13835 4.88062 0.732096 5.52187 0.444336C6.16313 0.156576 6.85583 0.00846354 7.6 0C8.33625 0 9.025 0.148112 9.66625 0.444336C10.3075 0.74056 10.8735 1.14681 11.3644 1.66309C11.8552 2.17936 12.2352 2.78027 12.5044 3.46582C12.7735 4.15137 12.9121 4.89193 12.92 5.6875C12.92 6.47461 12.7735 7.22786 12.4806 7.94727C12.1877 8.66667 11.7721 9.2972 11.2337 9.83887C11.5108 9.91504 11.7602 10.042 11.9819 10.2197C12.2035 10.3975 12.3975 10.6175 12.5638 10.8799C12.92 10.6683 13.2921 10.5625 13.68 10.5625C14.0758 10.5625 14.444 10.6598 14.7844 10.8545C15.1248 11.0492 15.3979 11.3285 15.6038 11.6924C15.96 11.4808 16.3321 11.375 16.72 11.375ZM3.8 5.6875C3.8 6.32227 3.93458 6.92741 4.20375 7.50293C4.47292 8.07845 4.845 8.55664 5.32 8.9375V5.6875C5.32 5.34896 5.37937 5.03158 5.49813 4.73535C5.61687 4.43913 5.77917 4.18099 5.985 3.96094C6.19083 3.74089 6.43229 3.56738 6.70937 3.44043C6.98646 3.31348 7.28333 3.25 7.6 3.25C7.91667 3.25 8.21354 3.31348 8.49062 3.44043C8.76771 3.56738 9.00917 3.74089 9.215 3.96094C9.42083 4.18099 9.58313 4.43913 9.70187 4.73535C9.82063 5.03158 9.88 5.34896 9.88 5.6875V8.9375C10.355 8.55664 10.7271 8.07845 10.9963 7.50293C11.2654 6.92741 11.4 6.32227 11.4 5.6875C11.4 5.12891 11.301 4.60417 11.1031 4.11328C10.9052 3.6224 10.6321 3.19499 10.2837 2.83105C9.93542 2.46712 9.53167 2.17513 9.0725 1.95508C8.61333 1.73503 8.1225 1.625 7.6 1.625C7.0775 1.625 6.58667 1.73079 6.1275 1.94238C5.66833 2.15397 5.26458 2.44596 4.91625 2.81836C4.56792 3.19076 4.29479 3.6224 4.09687 4.11328C3.89896 4.60417 3.8 5.12891 3.8 5.6875ZM17.48 13.8125C17.48 13.5924 17.4048 13.402 17.2544 13.2412C17.104 13.0804 16.9258 13 16.72 13C16.4508 13 16.2648 13.0804 16.1619 13.2412C16.059 13.402 15.9956 13.6009 15.9719 13.8379C15.9481 14.0749 15.9442 14.3372 15.96 14.625C15.9758 14.9128 15.9758 15.1709 15.96 15.3994C15.9442 15.6279 15.8808 15.8311 15.77 16.0088C15.6592 16.1865 15.4692 16.2669 15.2 16.25C14.9071 16.25 14.7092 16.1527 14.6062 15.958C14.5033 15.7633 14.44 15.5094 14.4163 15.1963C14.3925 14.8831 14.4004 14.5573 14.44 14.2188C14.4796 13.8802 14.4875 13.5544 14.4637 13.2412C14.44 12.9281 14.3806 12.6784 14.2856 12.4922C14.1906 12.306 13.9887 12.2044 13.68 12.1875C13.4108 12.1875 13.2248 12.2679 13.1219 12.4287C13.019 12.5895 12.9556 12.7884 12.9319 13.0254C12.9081 13.2624 12.9042 13.5247 12.92 13.8125C12.9358 14.1003 12.9358 14.3584 12.92 14.5869C12.9042 14.8154 12.8408 15.0186 12.73 15.1963C12.6192 15.374 12.4292 15.4544 12.16 15.4375C11.8671 15.4375 11.6692 15.3402 11.5662 15.1455C11.4633 14.9508 11.4 14.6969 11.3763 14.3838C11.3525 14.0706 11.3604 13.7448 11.4 13.4062C11.4396 13.0677 11.4475 12.7419 11.4237 12.4287C11.4 12.1156 11.3406 11.8659 11.2456 11.6797C11.1506 11.4935 10.9487 11.3919 10.64 11.375C10.3708 11.375 10.1848 11.4554 10.0819 11.6162C9.97896 11.777 9.91562 11.9759 9.89188 12.2129C9.86812 12.4499 9.86417 12.7122 9.88 13C9.89583 13.2878 9.89583 13.5459 9.88 13.7744C9.86417 14.0029 9.80083 14.2061 9.69 14.3838C9.57917 14.5615 9.38917 14.6419 9.12 14.625C8.91417 14.625 8.73604 14.5446 8.58562 14.3838C8.43521 14.223 8.36 14.0326 8.36 13.8125V5.6875C8.36 5.46745 8.28479 5.27702 8.13437 5.11621C7.98396 4.9554 7.80583 4.875 7.6 4.875C7.39417 4.875 7.21604 4.9554 7.06562 5.11621C6.91521 5.27702 6.84 5.46745 6.84 5.6875V15.6787C6.84 15.8734 6.80833 16.0511 6.745 16.2119C6.68167 16.3727 6.59062 16.5208 6.47187 16.6562C6.35313 16.7917 6.21458 16.889 6.05625 16.9482C5.89792 17.0075 5.73167 17.0456 5.5575 17.0625C5.38333 17.0625 5.21708 17.0286 5.05875 16.9609C4.90042 16.8932 4.75396 16.7917 4.61937 16.6562L2.96875 14.8916C2.8025 14.7139 2.60458 14.625 2.375 14.625C2.14542 14.625 1.9475 14.7139 1.78125 14.8916C1.615 15.0693 1.52792 15.2852 1.52 15.5391C1.52 15.7845 1.60312 15.9961 1.76937 16.1738L7.37437 22.1787C8.03938 22.8896 8.76771 23.4313 9.55937 23.8037C10.351 24.1761 11.2179 24.3665 12.16 24.375C12.8962 24.375 13.585 24.2269 14.2262 23.9307C14.8675 23.6344 15.4296 23.2282 15.9125 22.7119C16.3954 22.1956 16.7754 21.5947 17.0525 20.9092C17.3296 20.2236 17.4721 19.4831 17.48 18.6875V13.8125Z" fill="white"/>
</svg>
