<svg width="39" height="39" viewBox="0 0 39 39" fill="none" xmlns="http://www.w3.org/2000/svg">
<rect width="39" height="39" rx="5" fill="white"/>
<path d="M18.1458 29.4375H13.8438C13.3548 29.4375 12.8858 29.2432 12.54 28.8975C12.1942 28.5517 12 28.0827 12 27.5938" stroke="#8F0EF4" stroke-width="1.5" stroke-linecap="round" stroke-linejoin="round"/>
<path d="M26.75 17.7604V11.6146C26.75 11.4516 26.6853 11.2953 26.57 11.18C26.4548 11.0648 26.2984 11 26.1354 11H14.4583C13.8063 11 13.1811 11.259 12.72 11.72C12.259 12.1811 12 12.8063 12 13.4583V27.5937C12 27.1048 12.1942 26.6358 12.54 26.29C12.8858 25.9443 13.3548 25.75 13.8437 25.75H18.1458" stroke="#8F0EF4" stroke-width="1.5" stroke-linecap="round" stroke-linejoin="round"/>
<path d="M24.8653 19.9565L26.1256 22.677H28.5839C28.7079 22.6721 28.8303 22.7057 28.9346 22.773C29.0387 22.8404 29.1196 22.9382 29.1661 23.0533C29.2125 23.1683 29.2223 23.295 29.1941 23.4157C29.1658 23.5366 29.101 23.6458 29.0084 23.7284L26.8779 25.8286L28.0611 28.5459C28.1128 28.6702 28.1241 28.8075 28.0936 28.9387C28.0631 29.0698 27.9923 29.1881 27.8911 29.2769C27.7899 29.3656 27.6635 29.4205 27.5295 29.4337C27.3955 29.4469 27.2608 29.4178 27.1442 29.3506L24.2835 27.7436L21.4236 29.3506C21.307 29.4178 21.1723 29.4469 21.0383 29.4337C20.9044 29.4205 20.7779 29.3656 20.6767 29.2769C20.5755 29.1881 20.5047 29.0698 20.4742 28.9387C20.4437 28.8075 20.4551 28.6702 20.5067 28.5459L21.6891 25.8311L19.5586 23.7308C19.4648 23.6488 19.3988 23.5397 19.3696 23.4186C19.3404 23.2975 19.3496 23.1703 19.3959 23.0547C19.4421 22.939 19.5231 22.8406 19.6277 22.7729C19.7323 22.7053 19.8553 22.6718 19.9798 22.677H22.4381L23.7033 19.954C23.7591 19.848 23.8427 19.7592 23.9452 19.6974C24.0478 19.6356 24.1653 19.603 24.2851 19.6033C24.4048 19.6035 24.5222 19.6366 24.6245 19.6988C24.7267 19.7611 24.8101 19.8502 24.8653 19.9565Z" stroke="#8F0EF4" stroke-width="1.5" stroke-linecap="round" stroke-linejoin="round"/>
</svg>
