<svg width="30" height="30" viewBox="0 0 30 30" fill="none" xmlns="http://www.w3.org/2000/svg">
<circle cx="15" cy="15" r="10" fill="white"/>
<path d="M15 0C12.0333 0 9.13319 0.879736 6.66645 2.52795C4.19971 4.17618 2.27713 6.51887 1.14181 9.25976C0.00649951 12.0006 -0.290551 15.0166 0.288228 17.9264C0.867006 20.8361 2.29561 23.5089 4.3934 25.6066C6.49119 27.7044 9.16394 29.133 12.0737 29.7118C14.9834 30.2905 17.9994 29.9935 20.7402 28.8583C23.4811 27.7229 25.8239 25.8003 27.472 23.3335C29.1203 20.8669 30 17.9668 30 15C30 11.0218 28.4196 7.20644 25.6066 4.3934C22.7935 1.58035 18.9783 0 15 0ZM21.0375 16.1125L11.8125 20.725C11.6222 20.8209 11.4106 20.8665 11.1977 20.8576C10.9848 20.8488 10.7777 20.7855 10.5961 20.674C10.4145 20.5626 10.2644 20.4065 10.1601 20.2208C10.0558 20.035 10.0006 19.8256 10 19.6125V10.3875C9.99851 10.1734 10.0521 9.96243 10.1555 9.77493C10.259 9.58745 10.4088 9.42966 10.5908 9.31673C10.7727 9.2038 10.9806 9.1395 11.1946 9.13001C11.4085 9.12051 11.6213 9.16613 11.8125 9.26251L21.0375 13.875C21.2455 13.9786 21.4205 14.1383 21.5429 14.3359C21.6651 14.5335 21.7299 14.7614 21.7299 14.9938C21.7299 15.2261 21.6651 15.454 21.5429 15.6516C21.4205 15.8493 21.2455 16.0089 21.0375 16.1125Z" fill="#B45CFA"/>
</svg>
