<svg width="42" height="42" viewBox="0 0 42 42" fill="none" xmlns="http://www.w3.org/2000/svg">
<circle cx="21" cy="21" r="14" fill="white"/>
<path d="M21 0C16.8466 0 12.7865 1.23163 9.33303 3.53913C5.8796 5.84665 3.18798 9.12642 1.59854 12.9637C0.00909932 16.8009 -0.406771 21.0233 0.403519 25.0969C1.21381 29.1706 3.21386 32.9125 6.15076 35.8493C9.08766 38.7862 12.8295 40.7862 16.9031 41.5965C20.9767 42.4067 25.1991 41.9909 29.0363 40.4016C32.8736 38.8121 36.1534 36.1204 38.4608 32.6669C40.7683 29.2137 42 25.1535 42 21C42 15.4305 39.7875 10.089 35.8493 6.15077C31.9109 2.21249 26.5695 0 21 0ZM29.4525 22.5575L16.5375 29.015C16.2711 29.1493 15.9748 29.2131 15.6768 29.2007C15.3787 29.1883 15.0888 29.0997 14.8346 28.9436C14.5803 28.7877 14.3702 28.5691 14.2241 28.3091C14.0781 28.049 14.0009 27.7559 14 27.4575V14.5425C13.9979 14.2427 14.0729 13.9474 14.2177 13.6849C14.3625 13.4224 14.5724 13.2015 14.8271 13.0434C15.0818 12.8853 15.3729 12.7953 15.6724 12.782C15.9719 12.7687 16.2698 12.8326 16.5375 12.9675L29.4525 19.425C29.7437 19.5701 29.9887 19.7936 30.16 20.0702C30.3312 20.3469 30.4218 20.6659 30.4218 20.9913C30.4218 21.3166 30.3312 21.6356 30.16 21.9123C29.9887 22.189 29.7437 22.4124 29.4525 22.5575Z" fill="black"/>
</svg>
